<?xml version="1.0" encoding="UTF-8" standalone="no"?>
<!-- Created with Inkscape (http://www.inkscape.org/) -->

<svg
   width="1920"
   height="1080"
   viewBox="0 0 1920 1080"
   version="1.1"
   id="svg1"
   xml:space="preserve"
   xmlns:xlink="http://www.w3.org/1999/xlink"
   xmlns="http://www.w3.org/2000/svg"
   xmlns:svg="http://www.w3.org/2000/svg"><defs
     id="defs1"><linearGradient
       id="linearGradient124"><stop
         style="stop-color:#d7dee7;stop-opacity:1;"
         offset="0"
         id="stop124" /><stop
         style="stop-color:#6d90bb;stop-opacity:1;"
         offset="1"
         id="stop125" /></linearGradient><linearGradient
       id="linearGradient122"><stop
         style="stop-color:#d7f7ff;stop-opacity:1;"
         offset="0"
         id="stop122" /><stop
         style="stop-color:#5fc1dd;stop-opacity:1;"
         offset="1"
         id="stop123" /></linearGradient><linearGradient
       id="linearGradient120"><stop
         style="stop-color:#ffaeae;stop-opacity:1;"
         offset="0"
         id="stop120" /><stop
         style="stop-color:#e77373;stop-opacity:1;"
         offset="1"
         id="stop121" /></linearGradient><linearGradient
       id="linearGradient118"><stop
         style="stop-color:#cbffe3;stop-opacity:1;"
         offset="0"
         id="stop118" /><stop
         style="stop-color:#72dba2;stop-opacity:1;"
         offset="1"
         id="stop119" /></linearGradient><linearGradient
       id="linearGradient116"><stop
         style="stop-color:#e1b8ff;stop-opacity:1;"
         offset="0"
         id="stop116" /><stop
         style="stop-color:#9e5fc8;stop-opacity:1;"
         offset="1"
         id="stop117" /></linearGradient><linearGradient
       id="linearGradient114"><stop
         style="stop-color:#b8dfff;stop-opacity:1;"
         offset="0"
         id="stop114" /><stop
         style="stop-color:#8fc1e9;stop-opacity:1;"
         offset="1"
         id="stop115" /></linearGradient><linearGradient
       id="linearGradient112"><stop
         style="stop-color:#ffd5b8;stop-opacity:1;"
         offset="0"
         id="stop112" /><stop
         style="stop-color:#e6a374;stop-opacity:1;"
         offset="1"
         id="stop113" /></linearGradient><linearGradient
       id="linearGradient110"><stop
         style="stop-color:#ffbdb9;stop-opacity:1;"
         offset="0"
         id="stop110" /><stop
         style="stop-color:#f28e88;stop-opacity:1;"
         offset="1"
         id="stop111" /></linearGradient><linearGradient
       id="linearGradient94"><stop
         style="stop-color:#fff9b9;stop-opacity:1;"
         offset="0"
         id="stop94" /><stop
         style="stop-color:#f3ea90;stop-opacity:1;"
         offset="1"
         id="stop95" /></linearGradient><linearGradient
       id="linearGradient92"><stop
         style="stop-color:#ffccb9;stop-opacity:1;"
         offset="0"
         id="stop92" /><stop
         style="stop-color:#f7a384;stop-opacity:1;"
         offset="1"
         id="stop93" /></linearGradient><linearGradient
       id="linearGradient90"><stop
         style="stop-color:#ffe6b9;stop-opacity:1;"
         offset="0"
         id="stop90" /><stop
         style="stop-color:#f5cb81;stop-opacity:1;"
         offset="1"
         id="stop91" /></linearGradient><pattern
       xlink:href="#shading31"
       preserveAspectRatio="xMidYMid"
       id="pattern56"
       patternTransform="matrix(9.6,0,0,9.6,217.95321,2089.1685)"
       x="-22"
       y="6" /><pattern
       patternUnits="userSpaceOnUse"
       width="298.05"
       height="27.839"
       patternTransform="translate(217.95321,2089.1685)"
       preserveAspectRatio="xMidYMid"
       id="shading31"
       style="fill:#973566"><path
         id="use1"
         style="stroke-width:0.395906;stroke-linecap:square;paint-order:stroke markers fill;stop-color:#000000"
         d="M 0,0 H 13.9194 V 13.919 H 0 Z M 28.4189,0.696 H 40.9464 V 13.223 H 28.4189 Z M 56.8377,1.392 H 67.9733 V 12.527 H 56.8377 Z m 28.4189,0.696 h 9.7436 v 9.743 h -9.7436 z m 28.4188,0.696 h 8.3517 v 8.351 h -8.3517 z m 28.4189,0.696 h 6.9597 v 6.959 h -6.9597 z m 28.4189,0.696 h 5.5677 v 5.567 h -5.5677 z m 28.4188,0.696 h 4.1758 v 4.175 h -4.1758 z m 28.4189,0.696 h 2.7839 v 2.783 h -2.7839 z m 28.4188,0.695 h 1.392 v 1.392 h -1.392 z m 28.4189,0.696 z m -270.3272,6.96 h 13.9195 v 13.92 H 13.8614 Z m 28.4189,0.696 H 54.8078 V 27.143 H 42.2803 Z m 28.4189,0.696 H 81.8347 V 26.447 H 70.6992 Z m 28.4188,0.696 h 9.7436 v 9.744 H 99.118 Z m 28.4189,0.696 h 8.3516 v 8.352 h -8.3516 z m 28.4188,0.696 h 6.9598 v 6.96 h -6.9598 z m 28.4189,0.696 h 5.5678 v 5.568 h -5.5678 z m 28.4189,0.696 h 4.1758 v 4.176 h -4.1758 z m 28.4188,0.696 h 2.7839 v 2.784 h -2.7839 z m 28.4189,0.696 h 1.3919 v 1.392 h -1.3919 z m 28.4188,0.696 z" /></pattern><linearGradient
       id="linearGradient503"><stop
         style="stop-color:#481e36;stop-opacity:1;"
         offset="0"
         id="stop502" /><stop
         style="stop-color:#ffffff;stop-opacity:1;"
         offset="1"
         id="stop503" /></linearGradient><linearGradient
       id="linearGradient489"><stop
         style="stop-color:#ffffff;stop-opacity:1;"
         offset="0"
         id="stop489" /><stop
         style="stop-color:#ff9400;stop-opacity:0;"
         offset="1"
         id="stop490" /></linearGradient><linearGradient
       id="linearGradient466"><stop
         style="stop-color:#ffffff;stop-opacity:1;"
         offset="0"
         id="stop466" /><stop
         style="stop-color:#7effee;stop-opacity:1;"
         offset="1"
         id="stop467" /></linearGradient><linearGradient
       id="linearGradient462"><stop
         style="stop-color:#213f78;stop-opacity:1;"
         offset="0"
         id="stop461" /><stop
         style="stop-color:#3ea2c9;stop-opacity:1;"
         offset="0.99931067"
         id="stop462" /></linearGradient><linearGradient
       id="linearGradient423"><stop
         style="stop-color:#213f78;stop-opacity:1;"
         offset="0"
         id="stop422" /><stop
         style="stop-color:#3ea2c9;stop-opacity:1;"
         offset="0.99931067"
         id="stop423" /></linearGradient><linearGradient
       id="linearGradient2"><stop
         style="stop-color:#732e53;stop-opacity:1;"
         offset="0"
         id="stop1" /><stop
         style="stop-color:#ffa52f;stop-opacity:1;"
         offset="1"
         id="stop2" /></linearGradient><linearGradient
       xlink:href="#linearGradient2"
       id="linearGradient1"
       gradientUnits="userSpaceOnUse"
       x1="1073.2914"
       y1="1006.8765"
       x2="1073.2914"
       y2="526.94189"
       gradientTransform="translate(2902.1995,-177.69954)"
       spreadMethod="pad" /><linearGradient
       xlink:href="#linearGradient423"
       id="linearGradient453"
       x1="2753.6062"
       y1="794.41138"
       x2="2702.3186"
       y2="705.57886"
       gradientUnits="userSpaceOnUse" /><linearGradient
       xlink:href="#linearGradient462"
       id="linearGradient454"
       x1="2609.7405"
       y1="794.41241"
       x2="2661.0291"
       y2="705.57782"
       gradientUnits="userSpaceOnUse" /><linearGradient
       xlink:href="#linearGradient503"
       id="linearGradient464"
       x1="2681.6733"
       y1="820.84784"
       x2="2681.6733"
       y2="625.69257"
       gradientUnits="userSpaceOnUse" /><linearGradient
       xlink:href="#linearGradient466"
       id="linearGradient467"
       x1="2669.9922"
       y1="882.89368"
       x2="2669.9922"
       y2="987.61365"
       gradientUnits="userSpaceOnUse"
       gradientTransform="translate(104.25885,199.85976)" /><linearGradient
       xlink:href="#linearGradient489"
       id="linearGradient490"
       x1="1303.5122"
       y1="785.05872"
       x2="1303.5122"
       y2="690.03381"
       gradientUnits="userSpaceOnUse" /><linearGradient
       xlink:href="#linearGradient489"
       id="linearGradient495"
       gradientUnits="userSpaceOnUse"
       x1="1303.5122"
       y1="785.05872"
       x2="1303.5122"
       y2="690.03381"
       gradientTransform="translate(0,-20)" /><linearGradient
       xlink:href="#linearGradient489"
       id="linearGradient496"
       gradientUnits="userSpaceOnUse"
       x1="1303.5122"
       y1="785.05872"
       x2="1303.5122"
       y2="690.03381"
       gradientTransform="translate(0,-20)" /><linearGradient
       xlink:href="#linearGradient489"
       id="linearGradient497"
       gradientUnits="userSpaceOnUse"
       x1="1303.5122"
       y1="785.05872"
       x2="1303.5122"
       y2="690.03381" /><linearGradient
       xlink:href="#linearGradient503"
       id="linearGradient505"
       gradientUnits="userSpaceOnUse"
       x1="2681.6733"
       y1="820.84784"
       x2="2681.6733"
       y2="625.69257" /><linearGradient
       xlink:href="#linearGradient503"
       id="linearGradient506"
       gradientUnits="userSpaceOnUse"
       x1="2681.6733"
       y1="820.84784"
       x2="2681.6733"
       y2="625.69257" /><linearGradient
       xlink:href="#linearGradient90"
       id="linearGradient91"
       x1="860.44324"
       y1="1290.3729"
       x2="883.07068"
       y2="1313.0004"
       gradientUnits="userSpaceOnUse" /><linearGradient
       xlink:href="#linearGradient92"
       id="linearGradient93"
       x1="862.87421"
       y1="1334.0673"
       x2="880.63971"
       y2="1351.8326"
       gradientUnits="userSpaceOnUse" /><linearGradient
       xlink:href="#linearGradient94"
       id="linearGradient95"
       x1="903.41351"
       y1="1328.0441"
       x2="926.04095"
       y2="1350.6715"
       gradientUnits="userSpaceOnUse" /><linearGradient
       xlink:href="#linearGradient110"
       id="linearGradient111"
       x1="1109.0554"
       y1="1305.1687"
       x2="1131.6829"
       y2="1327.7961"
       gradientUnits="userSpaceOnUse" /><linearGradient
       xlink:href="#linearGradient112"
       id="linearGradient113"
       x1="957.4043"
       y1="1325.86"
       x2="968.39502"
       y2="1336.8507"
       gradientUnits="userSpaceOnUse" /><linearGradient
       xlink:href="#linearGradient114"
       id="linearGradient115"
       x1="975.27893"
       y1="1325.8711"
       x2="986.26947"
       y2="1336.8616"
       gradientUnits="userSpaceOnUse" /><linearGradient
       xlink:href="#linearGradient116"
       id="linearGradient117"
       x1="961.69171"
       y1="1340.9829"
       x2="981.98212"
       y2="1361.2732"
       gradientUnits="userSpaceOnUse" /><linearGradient
       xlink:href="#linearGradient118"
       id="linearGradient119"
       x1="1009.8473"
       y1="1319.4082"
       x2="1015.1227"
       y2="1324.6836"
       gradientUnits="userSpaceOnUse" /><linearGradient
       xlink:href="#linearGradient120"
       id="linearGradient121"
       x1="-413.72046"
       y1="1431.4651"
       x2="-456.14697"
       y2="1473.8916"
       gradientUnits="userSpaceOnUse" /><linearGradient
       xlink:href="#linearGradient122"
       id="linearGradient123"
       x1="134.69554"
       y1="833.86676"
       x2="92.269127"
       y2="876.29315"
       gradientUnits="userSpaceOnUse" /><linearGradient
       xlink:href="#linearGradient124"
       id="linearGradient125"
       x1="-413.51218"
       y1="1303.4889"
       x2="-455.93869"
       y2="1345.9154"
       gradientUnits="userSpaceOnUse" /><linearGradient
       xlink:href="#linearGradient118"
       id="linearGradient3"
       gradientUnits="userSpaceOnUse"
       x1="1009.8473"
       y1="1319.4082"
       x2="1015.1227"
       y2="1324.6836" /></defs><g
     id="layer5"><g
       id="g488"
       transform="matrix(1.3290281,0,0,1.3290281,1779.8935,-422.92834)"
       style="display:inline"><circle
         style="display:inline;opacity:1;fill:url(#linearGradient1);stroke:none;stroke-width:7.14924;stroke-linecap:round"
         id="path19-6-7"
         cx="3975.4912"
         cy="589.20966"
         r="239.96718"
         transform="matrix(0.75242954,0,0,0.75242954,-1339.2444,318.22378)" /><g
         id="g459"
         style="display:inline;stroke:none;stroke-opacity:1"
         transform="translate(-1029.641,43.63896)"><path
           style="opacity:1;fill:url(#linearGradient454);fill-opacity:1;stroke:none;stroke-width:10;stroke-linecap:butt;stroke-linejoin:round;stroke-opacity:1"
           d="m 2681.6735,830.16977 -92.5777,-53.44976 V 669.82043 l 92.5777,53.44979 z"
           id="path448" /><path
           style="opacity:1;fill:#3eadc9;fill-opacity:1;stroke:none;stroke-width:10;stroke-linecap:butt;stroke-linejoin:round;stroke-opacity:1"
           d="m 2589.0958,669.82043 92.5777,53.44979 92.5777,-53.44978 -92.5777,-53.44977 z"
           id="path449" /><path
           style="opacity:1;fill:url(#linearGradient453);fill-opacity:1;stroke:none;stroke-width:10;stroke-linecap:butt;stroke-linejoin:round;stroke-opacity:1"
           d="m 2681.6735,830.16977 92.5777,-53.44976 V 669.82043 l -92.5777,53.44979 z"
           id="path450" /></g><g
         id="g461"
         style="display:inline;mix-blend-mode:overlay;fill:none;fill-opacity:1;stroke:url(#linearGradient464);stroke-width:10;stroke-linejoin:round;stroke-dasharray:none"
         transform="translate(-1029.641,43.63896)"><path
           style="display:inline;opacity:1;fill:none;fill-opacity:1;stroke:url(#linearGradient505)"
           d="m 2589.0958,669.82043 92.5777,-53.44976 92.5777,53.44977 v 106.89957 l -92.5777,53.44976 -92.5777,-53.44976 V 669.82043 l 92.5777,53.44979"
           id="path459" /><path
           style="display:inline;opacity:1;mix-blend-mode:normal;fill:none;fill-opacity:1;stroke:url(#linearGradient506)"
           d="m 2774.2512,669.82044 -92.5777,53.44978 v 106.89955"
           id="path460" /></g><g
         id="g467"
         transform="matrix(0.30227856,-0.17452061,0,0.34913427,858.20754,884.1116)"
         style="display:inline"><rect
           style="display:inline;opacity:1;fill:#000000;fill-opacity:0.725628;stroke:none;stroke-width:10;stroke-linecap:round;stroke-linejoin:miter;stroke-dasharray:none;stroke-opacity:1;paint-order:markers stroke fill"
           id="rect467"
           width="245.96506"
           height="245.96506"
           x="2656.2686"
           y="1007.1309"
           ry="4.7132387"
           rx="4.7132387" /><text
           xml:space="preserve"
           style="font-size:85.3333px;line-height:0;font-family:Monospace;-inkscape-font-specification:Monospace;text-align:start;letter-spacing:0px;word-spacing:0px;writing-mode:lr-tb;direction:ltr;text-anchor:start;opacity:1;fill:none;fill-opacity:1;stroke:url(#linearGradient467);stroke-width:10;stroke-linecap:round;stroke-linejoin:round;stroke-dasharray:none"
           x="2719.2112"
           y="1154.4841"
           id="text466"><tspan
             id="tspan466"
             x="2719.2112"
             y="1154.4841"
             style="stroke:url(#linearGradient467)">&gt;_</tspan></text></g><g
         id="g489"
         transform="translate(348.52022,-50.1834)"
         style="display:inline;stroke:url(#linearGradient490)"><path
           style="mix-blend-mode:lighten;fill:none;stroke:url(#linearGradient495);stroke-width:10.7947;stroke-linecap:round"
           d="m 1267.2949,767.69523 c 10.6238,-19.81459 6.0762,-30.79636 0,-50.14898 -8.4785,-17.92595 -7.6296,-32.07484 0,-50.14896"
           id="path24-6" /><path
           style="mix-blend-mode:lighten;fill:none;stroke:url(#linearGradient497);stroke-width:10.7947;stroke-linecap:round"
           d="m 1303.2772,787.69523 c 10.6237,-19.81459 6.0761,-30.79636 0,-50.14898 -8.4785,-17.92595 -7.6297,-32.07484 0,-50.14896"
           id="path25-1" /><path
           style="mix-blend-mode:lighten;fill:none;stroke:url(#linearGradient496);stroke-width:10.7947;stroke-linecap:round"
           d="m 1339.2594,767.69523 c 10.6238,-19.81459 6.0762,-30.79636 0,-50.14898 -8.4785,-17.92595 -7.6296,-32.07484 0,-50.14896"
           id="path26-0" /></g></g></g><g
     id="layer8"><g
       id="g76"><rect
         style="display:inline;fill:#732e53;fill-opacity:1;paint-order:markers stroke fill"
         id="rect56"
         width="1920"
         height="1080"
         x="0"
         y="0"
         ry="4.7132387" /><rect
         style="opacity:0.320597;mix-blend-mode:normal;fill:url(#pattern56);fill-opacity:1;paint-order:markers stroke fill"
         id="rect1"
         width="1920"
         height="1080"
         x="0"
         y="0"
         ry="4.7132387" /></g><use
       x="0"
       y="0"
       xlink:href="#layer5"
       id="use27"
       transform="translate(-3675.524,-288.42454)"
       style="mix-blend-mode:normal" /><g
       id="g63"
       transform="translate(548.20779,-357.34201)"><text
         xml:space="preserve"
         style="font-size:64px;line-height:0;font-family:Monospace;-inkscape-font-specification:Monospace;text-align:start;letter-spacing:0px;word-spacing:0px;writing-mode:lr-tb;direction:ltr;text-anchor:start;opacity:1;fill:#ffffff;fill-opacity:1;stroke:none;stroke-width:8;stroke-dasharray:none;stroke-opacity:1;paint-order:fill markers stroke"
         x="-354.20108"
         y="1341.182"
         id="text59"><tspan
           id="tspan59"
           x="-354.20108"
           y="1341.182"
           style="font-style:normal;font-variant:normal;font-weight:normal;font-stretch:normal;font-family:Comfortaa;-inkscape-font-specification:Comfortaa">Noise-programming</tspan></text><rect
         style="opacity:1;fill:none;fill-opacity:1;stroke:#ffffff;stroke-width:6;stroke-dasharray:none;stroke-opacity:1;paint-order:fill markers stroke"
         id="rect61"
         width="98.964714"
         height="97.279999"
         x="-484.20779"
         y="1276.062"
         ry="48.639999" /><path
         d="m -434.7255,1295.4422 c -16.57499,0 -30,13.425 -30,30 0,13.275 8.58751,24.4873 20.51251,28.4624 1.49999,0.2626 2.06249,-0.6373 2.06249,-1.425 0,-0.7125 -0.0373,-3.075 -0.0373,-5.5874 -7.5375,1.3874 -9.48752,-1.8376 -10.0875,-3.5249 -0.33751,-0.8626 -1.80001,-3.5251 -3.07501,-4.2377 -1.05,-0.5624 -2.55,-1.9499 -0.0376,-1.9874 2.36249,-0.037 4.04999,2.1752 4.6125,3.0751 2.7,4.5374 7.0125,3.2623 8.73749,2.475 0.26236,-1.9501 1.05001,-3.2626 1.91251,-4.0126 -6.67501,-0.75 -13.65001,-3.3375 -13.65001,-14.8124 0,-3.2626 1.1625,-5.9626 3.07499,-8.0626 -0.29998,-0.75 -1.34999,-3.825 0.30002,-7.9499 0,0 2.51249,-0.7875 8.24999,3.075 2.40001,-0.675 4.95,-1.0126 7.5,-1.0126 2.55,0 5.10001,0.3376 7.50001,1.0126 5.73763,-3.9 8.25,-3.075 8.25,-3.075 1.65,4.1249 0.6,7.1999 0.3,7.9499 1.91262,2.1 3.075,4.7626 3.075,8.0626 0,11.5123 -7.01237,14.0624 -13.68736,14.8124 1.08736,0.9376 2.025,2.7375 2.025,5.5499 0,4.0126 -0.0376,7.2376 -0.0376,8.25 0,0.7877 0.56263,1.725 2.06264,1.425 11.85,-3.9751 20.43736,-15.2249 20.43736,-28.4624 0,-16.575 -13.42501,-30 -30,-30 z"
         id="path1-06"
         style="fill:url(#linearGradient125);fill-opacity:1;stroke-width:2.72727" /></g><g
       id="g64"
       transform="translate(548.20779,-597.75312)"><text
         xml:space="preserve"
         style="font-size:64px;line-height:0;font-family:Monospace;-inkscape-font-specification:Monospace;text-align:start;letter-spacing:0px;word-spacing:0px;writing-mode:lr-tb;direction:ltr;text-anchor:start;opacity:1;fill:#ffffff;fill-opacity:1;stroke:none;stroke-width:8;stroke-dasharray:none;stroke-opacity:1;paint-order:fill markers stroke"
         x="-354.20108"
         y="1469.3131"
         id="text62"><tspan
           id="tspan62"
           x="-354.20108"
           y="1469.3131"
           style="font-style:normal;font-variant:normal;font-weight:normal;font-stretch:normal;font-family:Comfortaa;-inkscape-font-specification:Comfortaa">@NoiseProgramming</tspan></text><rect
         style="opacity:1;fill:none;fill-opacity:1;stroke:#ffffff;stroke-width:6;stroke-dasharray:none;stroke-opacity:1;paint-order:fill markers stroke"
         id="rect62"
         width="98.964714"
         height="97.279999"
         x="-484.20779"
         y="1404.1931"
         ry="48.639999" /><path
         d="m 96.488704,832.21959 c 6.878166,5.1655 14.277256,15.6382 16.993626,21.2564 2.71637,-5.6182 10.11546,-16.0909 16.99363,-21.2536 4.96364,-3.7282 13.00637,-6.6109 13.00637,2.5636 0,1.8328 -1.05,15.3927 -1.66637,17.5936 -2.14089,7.6528 -9.94635,9.6056 -16.88726,8.4246 12.13363,2.0647 15.2209,8.9046 8.55545,15.7474 -12.66272,12.9927 -18.19636,-3.2591 -19.61728,-7.4237 -0.25908,-0.7636 -0.38182,-1.121 -0.38182,-0.8182 -0.003,-0.3054 -0.12274,0.052 -0.38181,0.8182 -1.4209,4.1646 -6.95454,20.4164 -19.617276,7.4237 -6.66817,-6.8428 -3.5809,-13.6827 8.555456,-15.7474 -6.943636,1.181 -14.746356,-0.7691 -16.887276,-8.4246 -0.62181,-2.2009 -1.67181,-15.7608 -1.67181,-17.5936 0,-9.1745 8.04273,-6.2918 13.00637,-2.5664 z"
         id="path1-8"
         style="fill:url(#linearGradient123);fill-opacity:1;stroke-width:2.72728"
         transform="translate(-548.20779,597.75312)" /></g><g
       id="g65"
       transform="translate(548.20779,-710.03311)"><text
         xml:space="preserve"
         style="font-size:64px;line-height:0;font-family:Monospace;-inkscape-font-specification:Monospace;text-align:start;letter-spacing:0px;word-spacing:0px;writing-mode:lr-tb;direction:ltr;text-anchor:start;opacity:1;fill:#ffffff;fill-opacity:1;stroke:none;stroke-width:8;stroke-dasharray:none;stroke-opacity:1;paint-order:fill markers stroke"
         x="-354.20108"
         y="1469.3131"
         id="text64"><tspan
           id="tspan64"
           x="-354.20108"
           y="1469.3131"
           style="font-style:normal;font-variant:normal;font-weight:normal;font-stretch:normal;font-family:Comfortaa;-inkscape-font-specification:Comfortaa">@NoiseProgramming</tspan></text><rect
         style="opacity:1;fill:none;fill-opacity:1;stroke:#ffffff;stroke-width:6;stroke-dasharray:none;stroke-opacity:1;paint-order:fill markers stroke"
         id="rect64"
         width="98.964714"
         height="97.279999"
         x="-484.20779"
         y="1404.1931"
         ry="48.639999" /><path
         d="m -406.60853,1438.0618 c -0.55465,-3.0614 -3.1974,-5.2909 -6.26428,-5.987 -4.58946,-0.9732 -13.0832,-1.6693 -22.27298,-1.6693 -9.18434,0 -17.81404,0.6961 -22.40892,1.6693 -3.06146,0.6961 -5.70963,2.7842 -6.26428,5.987 -0.56008,3.4802 -1.11473,8.3524 -1.11473,14.6167 0,6.2643 0.55465,11.1364 1.25068,14.6166 0.56008,3.0614 3.20282,5.291 6.26428,5.987 4.87221,0.9733 13.22457,1.6693 22.41435,1.6693 9.18978,0 17.54214,-0.696 22.41436,-1.6693 3.06145,-0.696 5.70419,-2.7841 6.26427,-5.987 0.55465,-3.4802 1.25069,-8.4937 1.39206,-14.6166 -0.28275,-6.2643 -0.97878,-11.1365 -1.67481,-14.6167 z m -36.05221,24.3611 v -19.4889 l 16.98206,9.7445 z"
         id="path1-0"
         style="fill:url(#linearGradient121);fill-opacity:1;stroke-width:1.39207" /></g><g
       id="g89"
       transform="translate(13.010927,-5.4272962)"><text
         xml:space="preserve"
         style="font-size:85.3333px;line-height:0;font-family:Monospace;-inkscape-font-specification:Monospace;text-align:start;letter-spacing:0px;word-spacing:0px;writing-mode:lr-tb;direction:ltr;text-anchor:start;opacity:1;fill:#ffffff;fill-opacity:1;stroke:none;stroke-width:3;stroke-dasharray:none;stroke-opacity:1;paint-order:normal"
         x="582.39014"
         y="230.57816"
         id="text27"><tspan
           id="tspan27"
           x="582.39014"
           y="230.57816"
           style="font-style:normal;font-variant:normal;font-weight:normal;font-stretch:normal;font-family:Comfortaa;-inkscape-font-specification:Comfortaa">s</tspan></text><text
         xml:space="preserve"
         style="font-size:85.3333px;line-height:0;font-family:Monospace;-inkscape-font-specification:Monospace;text-align:start;letter-spacing:0px;word-spacing:0px;writing-mode:lr-tb;direction:ltr;text-anchor:start;opacity:1;fill:#ffffff;fill-opacity:1;stroke:none;stroke-width:3;stroke-dasharray:none;stroke-opacity:1;paint-order:normal"
         x="584.34015"
         y="339.4577"
         id="text29"><tspan
           id="tspan29"
           x="584.34015"
           y="339.4577"
           style="font-style:normal;font-variant:normal;font-weight:normal;font-stretch:normal;font-family:Arial;-inkscape-font-specification:Arial;fill:#ffffff">Programador FullStack</tspan></text><text
         xml:space="preserve"
         style="font-size:64px;line-height:0;font-family:Monospace;-inkscape-font-specification:Monospace;text-align:start;letter-spacing:0px;word-spacing:0px;writing-mode:lr-tb;direction:ltr;text-anchor:start;opacity:1;fill:#ffffff;fill-opacity:1;stroke:none;stroke-width:8;stroke-dasharray:none;stroke-opacity:1;paint-order:fill markers stroke"
         x="585.98596"
         y="447.74197"
         id="text65"><tspan
           id="tspan65"
           x="585.98596"
           y="447.74197"
           style="font-style:normal;font-variant:normal;font-weight:normal;font-stretch:normal;font-family:Arial;-inkscape-font-specification:Arial">Donde el ruido no nos detiene</tspan></text></g><g
       id="g71"
       transform="translate(799.6309,-128.62886)"
       style="fill-opacity:1;stroke:none;stroke-opacity:1"><path
         d="m 1120.3691,1296.4824 c -8.6106,0.01 -15.6627,3.0122 -15.957,6.7988 -0.017,0.08 -0.032,0.162 -0.043,0.2422 0.011,1.1911 0.7085,2.3602 2.0273,3.4004 2.1346,1.6901 5.7551,2.9202 10.0118,3.4004 1.2924,0.1523 2.6231,0.2319 3.9609,0.2383 1.3696,-0.01 2.7316,-0.089 4.0527,-0.2481 4.2304,-0.489 7.8214,-1.7199 9.9375,-3.4043 1.3076,-1.0368 1.999,-2.2009 2.0098,-3.3867 0,-0.08 -0.01,-0.162 -0.014,-0.2422 -0.2947,-3.7916 -7.3642,-6.7977 -15.9863,-6.7988 z m -16,8.8008 v 6.7988 c 0.011,1.191 0.7085,2.3622 2.0273,3.4023 2.3264,1.8508 6.4206,3.1428 11.1504,3.5196 0.9309,0.077 1.8755,0.1164 2.8223,0.1191 0.9603,0 1.9179,-0.046 2.8613,-0.125 4.7255,-0.3814 8.8114,-1.6756 11.1289,-3.5273 1.3076,-1.0368 1.999,-2.203 2.0098,-3.3887 v -6.7988 c -0.011,1.1857 -0.7022,2.35 -2.0098,3.3867 -2.1161,1.6845 -5.7071,2.9152 -9.9375,3.4043 -1.3211,0.1591 -2.6831,0.2416 -4.0527,0.248 -1.3378,-0.01 -2.6685,-0.086 -3.9609,-0.2383 -4.2567,-0.4803 -7.8772,-1.7104 -10.0118,-3.4004 -1.3188,-1.0402 -2.0163,-2.2093 -2.0273,-3.4003 z m 0,8.5586 v 6.8007 c 0.015,1.2385 0.7722,2.4529 2.1953,3.5215 2.8498,2.1706 8.1078,3.5099 13.8047,3.5176 5.7149,-0.01 10.9866,-1.3557 13.8301,-3.5371 1.4069,-1.064 2.1551,-2.2709 2.1699,-3.502 v -6.8007 c -0.011,1.1856 -0.7022,2.3519 -2.0098,3.3886 -2.3175,1.8518 -6.4034,3.1478 -11.1289,3.5293 -0.9434,0.079 -1.901,0.1197 -2.8613,0.1231 -0.9468,0 -1.8914,-0.043 -2.8223,-0.1192 -4.7298,-0.3769 -8.824,-1.6687 -11.1504,-3.5195 -1.3188,-1.0401 -2.0163,-2.2113 -2.0273,-3.4023 z m 0,8.5605 v 7.0391 c 0,3.8882 7.1635,7.041 16,7.041 8.8366,0 16,-3.1528 16,-7.041 v -7.0391 c -0.015,1.231 -0.763,2.438 -2.1699,3.502 -2.8435,2.1813 -8.1152,3.5294 -13.8301,3.5371 -5.6969,-0.01 -10.9549,-1.347 -13.8047,-3.5176 -1.4231,-1.0685 -2.1802,-2.283 -2.1953,-3.5215 z"
         style="opacity:1;fill:url(#linearGradient111);fill-opacity:1;fill-rule:nonzero;stroke-width:0.654792;paint-order:fill markers stroke"
         id="path98" /></g><g
       id="g75"
       style="fill-opacity:1"
       transform="matrix(6.4337221,0,0,6.4337221,-4552.2041,-7727.9921)"><path
         d="m 873.7973,1326.9499 c 1.76028,4.0732 -6.31104,6.5886 -7.06116,9.9816 -0.68761,3.118 4.79579,6.7412 4.80079,6.7412 -0.83264,-1.2902 -1.44524,-2.353 -2.28037,-4.3608 -1.41274,-3.3955 8.6039,-6.4686 4.54074,-12.362 z m 5.36087,5.6409 c 0,0 -7.08116,0.4551 -7.44122,4.9809 -0.16002,2.0153 1.86281,3.0754 1.92031,4.5407 0.0475,1.1977 -1.20019,2.2003 -1.20019,2.2003 0,0 2.27037,-0.4325 2.98049,-2.2603 0.78763,-2.0278 -1.53526,-3.398 -1.30021,-5.0208 0.22503,-1.5529 5.04082,-4.4408 5.04082,-4.4408 z m -11.12181,10.4618 c 0,0 -6.48106,-0.093 -6.48106,1.7402 0,1.9153 8.48388,2.0578 14.54237,0.8801 0,0 1.61026,-1.1076 2.04033,-1.5202 -3.97065,0.8102 -13.02212,0.9002 -13.02212,0.2 0,-0.645 2.92048,-1.3001 2.92048,-1.3001 z m 12.46203,0 c -0.63511,0.05 -1.32022,0.295 -1.94032,0.74 1.46024,-0.315 2.70044,0.5901 2.70044,1.6204 0,2.3203 -3.36054,4.5006 -3.36054,4.5006 0,0 5.20084,-0.5901 5.20084,-4.4007 0,-1.7302 -1.2027,-2.5704 -2.60042,-2.4603 z m -14.02229,3.5605 c -0.99516,0 -2.48041,0.7801 -2.48041,1.5203 0,1.4877 7.48122,2.6329 13.02213,0.4601 l -1.92031,-1.1803 c -3.75561,1.2028 -10.67175,0.8102 -8.62141,-0.8001 z m 0.92015,3.3406 c -1.36272,0 -2.26037,0.8226 -2.26037,1.4402 0,1.9103 8.13883,2.1028 11.36186,0.16 l -2.04034,-1.3001 c -2.40789,1.0176 -8.45138,1.1726 -7.06115,-0.3001 z m -4.54074,1.7202 c -2.22037,-0.045 -3.6606,0.9527 -3.6606,1.7804 0,4.4007 22.72371,4.1981 22.72371,-0.3001 0,-0.7477 -0.86264,-1.1102 -1.18019,-1.2802 1.8578,4.3007 -18.60304,3.9581 -18.60304,1.4202 0,-0.5776 1.50525,-1.1302 2.90047,-0.8601 l -1.18019,-0.6801 c -0.34756,-0.053 -0.68261,-0.072 -1.00016,-0.08 z m 21.4635,2.9605 c -3.45557,3.2755 -12.21199,4.4633 -21.02343,2.4404 8.80894,3.6056 20.98093,1.5828 21.02343,-2.4404 z"
         id="path1"
         style="fill:url(#linearGradient93);fill-opacity:1;stroke-width:0.640105" /><path
         d="m 871.40915,1285.6867 c -6.0516,0 -7.3044,3.125 -7.3044,4.9348 v 3.413 h 6.9565 v 0.6957 h -10.3696 c -2.2961,0 -4.9347,1.8098 -4.9347,6.9565 0,5.1467 2.6386,6.9565 4.9347,6.9565 h 4.1088 v -4.1739 c 0,-1.5299 1.2527,-2.7826 2.7826,-2.7826 h 8.3478 c 1.1821,0 2.087,-0.9049 2.087,-2.087 v -8.9782 c 0,-2.4348 -2.2962,-4.9348 -6.6087,-4.9348 z m -3.1305,3.4783 c 0.7663,0 1.3913,0.6249 1.3913,1.3913 0,0.7663 -0.625,1.3913 -1.3913,1.3913 -0.7663,0 -1.3913,-0.625 -1.3913,-1.3913 0,-0.7664 0.625,-1.3913 1.3913,-1.3913 z m 10.4348,5.5652 v 4.8695 c 0,1.5299 -1.2527,2.7827 -2.7826,2.7827 h -8.3478 c -1.1821,0 -2.087,0.9049 -2.087,2.0869 v 8.2827 c 0,2.4347 2.2962,4.9347 6.6087,4.9347 6.0516,0 7.3044,-3.125 7.3044,-4.9347 v -3.4131 h -6.9565 v -0.6957 h 10.36951 c 2.2962,0 4.9348,-1.8098 4.9348,-6.9565 0,-5.1467 -2.6386,-6.9565 -4.9348,-6.9565 z m -3.4782,16.6956 c 0.7662,0 1.3913,0.625 1.3913,1.3913 0,0.7664 -0.6251,1.3913 -1.3913,1.3913 -0.7664,0 -1.3913,-0.6249 -1.3913,-1.3913 0,-0.7663 0.6249,-1.3913 1.3913,-1.3913 z"
         id="path1-81"
         style="fill:url(#linearGradient91);fill-opacity:1;stroke-width:0.695652" /><path
         d="m 927.81814,1323.3578 h -26.18182 c -1.60726,0 -2.90908,1.3018 -2.90908,2.9092 v 26.1817 c 0,1.6073 1.30182,2.9091 2.90908,2.9091 h 26.18182 c 1.6073,0 2.9091,-1.3018 2.9091,-2.9091 v -26.1817 c 0,-1.6073 -1.3018,-2.9092 -2.9091,-2.9092 z m -13.09094,23.8254 c 0,2.5848 -1.58545,4.0334 -4.21817,4.0334 -2.60072,0 -4.25744,-1.52 -4.25744,-3.9781 h 2.81744 c 0.0146,0.912 0.55128,1.488 1.392,1.488 0.864,0 1.328,-0.544 1.328,-1.568 v -7.8035 h 2.93817 z m 7.97235,4.0334 c -2.92218,0 -4.76072,-1.376 -4.81017,-3.6014 h 2.80145 c 0.0713,0.8407 0.91054,1.376 2.12799,1.376 1.09673,0 1.85018,-0.528 1.85018,-1.2887 0,-0.64 -0.50473,-0.9848 -1.82545,-1.248 l -1.52,-0.304 c -2.11345,-0.4 -3.20144,-1.552 -3.20144,-3.3687 0,-2.2575 1.80945,-3.7382 4.59344,-3.7382 2.70549,0 4.57749,1.4647 4.62549,3.6014 h -2.71277 c -0.064,-0.816 -0.84072,-1.3847 -1.8749,-1.3847 -1.03127,0 -1.71054,0.4887 -1.71054,1.2567 0,0.6328 0.51199,1.0008 1.72799,1.2408 l 1.48654,0.288 c 2.28218,0.4407 3.30618,1.4719 3.30618,3.3047 0,2.4101 -1.8385,3.8661 -4.86399,3.8661 z"
         id="path1-9"
         style="fill:url(#linearGradient95);fill-opacity:1;stroke-width:1.45454" /><use
         x="0"
         y="0"
         xlink:href="#g71"
         id="use72"
         transform="matrix(0.8,0,0,0.8,-621.27276,351.9924)"
         style="fill-opacity:1;stroke-width:1;stroke-dasharray:none" /><g
         id="g80"
         transform="translate(-9.3258056,2.9529426)"><g
           id="g78"
           transform="matrix(1.6445804,0,0,1.6445804,-619.76157,-878.06296)"><g
             id="g77" /></g><g
           id="g90"
           style="fill:#cbffe3;fill-opacity:1"
           transform="matrix(4.4739259,0,0,4.4739259,-3551.2806,-4632.5192)"><path
             d="m 970.57193,1322.7739 c -0.071,-0.078 -0.17299,-0.1227 -0.2794,-0.1227 h -14.78567 c -0.10646,0 -0.20845,0.044 -0.2794,0.1227 -0.0724,0.078 -0.10794,0.1833 -0.0976,0.2897 l 1.33192,14.9202 c 0.0132,0.1567 0.12268,0.2868 0.2735,0.3312 l 6.05943,1.7296 c 0.0325,0.01 0.068,0.015 0.10345,0.015 0.0356,0 0.0695,0 0.10347,-0.015 l 6.0639,-1.7296 c 0.15076,-0.044 0.2587,-0.1745 0.27346,-0.3312 l 1.33048,-14.9202 c 0.0103,-0.1064 -0.025,-0.2113 -0.0976,-0.2897 z m -3.18865,5.1444 h -7.11935 l 0.17,1.9262 h 6.77785 l -0.50851,5.6928 -3.80655,1.1501 -0.0371,-0.012 -3.76219,-1.1397 -0.2055,-2.3194 h 1.84342 l 0.0798,0.9002 2.10359,0.4406 2.06513,-0.4406 0.22025,-2.4362 h -6.44972 l -0.50113,-5.6026 h 9.29391 z"
             id="path1-6"
             style="fill:url(#linearGradient113);fill-opacity:1;stroke-width:0.378437"
             transform="matrix(0.36759222,0,0,0.36759222,655.2453,839.18607)" /><path
             d="m 988.36075,1322.8934 c -0.1383,-0.1542 -0.3354,-0.2422 -0.542,-0.2422 H 973.7302 c -0.20663,0 -0.4038,0.088 -0.54199,0.2422 -0.13823,0.1542 -0.20371,0.3601 -0.18116,0.5653 l 1.60195,14.421 c 0.0318,0.2932 0.23932,0.5383 0.52306,0.6191 l 5.44162,1.5546 c 0.0654,0.019 0.13312,0.028 0.20003,0.028 0.0669,0 0.1346,-0.01 0.20009,-0.028 l 5.44165,-1.5546 c 0.2836,-0.081 0.4903,-0.3259 0.523,-0.6191 l 1.6027,-14.421 c 0.023,-0.2052 -0.042,-0.4111 -0.1804,-0.5653 z m -3.5735,7.0865 -0.3244,5.2997 -3.66511,1.1982 -3.6651,-1.1982 -0.13895,-2.5345 h 1.85508 l 0.0466,1.1523 1.9024,0.6453 1.90238,-0.6453 0.1389,-2.0733 h -4.08263 l -0.0924,-1.8435 h 4.26813 l 0.139,-1.8435 h -6.40263 l -0.13894,-1.8441 h 8.48977 z"
             id="path1-61"
             style="fill:url(#linearGradient115);fill-opacity:1;stroke-width:0.72749"
             transform="matrix(0.36759222,0,0,0.36759222,655.2453,839.18607)" /><path
             d="m 971.83689,1343.3564 c -8.04474,0 -14.34746,3.4141 -14.34746,7.7716 0,4.3575 6.30272,7.7715 14.34746,7.7715 8.04475,0 14.34748,-3.414 14.34748,-7.7715 0,-4.3575 -6.30273,-7.7716 -14.34748,-7.7716 z m -1.48987,2.3912 h 1.56692 l -0.49737,2.3913 h 1.39876 c 0.8874,0 1.48287,0.1237 1.82148,0.4344 0.3316,0.3059 0.43202,0.8079 0.29891,1.4922 l -0.62118,2.8559 h -1.59258 l 0.5721,-2.6411 c 0.0701,-0.362 0.0419,-0.6141 -0.0794,-0.7473 -0.12144,-0.1331 -0.38763,-0.1985 -0.78695,-0.1985 h -1.25406 l -0.75656,3.5869 h -1.56928 z m -6.87948,2.3913 h 3.18755 c 1.52022,0 2.44029,1.0181 2.08066,2.5384 -0.418,1.7654 -1.53888,2.2441 -3.59853,2.2441 h -0.98549 l -0.31288,1.7934 h -1.58326 z m 12.55402,0 h 3.18755 c 1.52024,0 2.44031,1.0181 2.08068,2.5384 -0.418,1.7654 -1.53888,2.2441 -3.59853,2.2441 h -0.98549 l -0.31288,1.7934 h -1.58326 z m -11.19728,1.1956 -0.4507,2.3913 h 1.02286 c 0.885,0 1.707,-0.1005 1.84479,-1.4198 0.0514,-0.5114 -0.16112,-0.9715 -1.18398,-0.9715 z m 12.55404,0 -0.45071,2.3913 h 1.02287 c 0.885,0 1.707,-0.1005 1.84479,-1.4198 0.0514,-0.5114 -0.16112,-0.9715 -1.18398,-0.9715 z"
             id="path1-3"
             style="fill:url(#linearGradient117);fill-opacity:1;stroke-width:0.597811"
             transform="matrix(0.36759222,0,0,0.36759222,655.2453,839.18607)" /></g><g
           id="g79"
           transform="matrix(4.4739259,0,0,4.4739259,-3551.2805,-4632.5193)"
           style="fill:url(#linearGradient119);fill-opacity:1"><path
             d="m 1010.1139,1319.9215 c -0.021,5e-4 -0.041,0.01 -0.06,0.017 -0.061,0.035 -0.082,0.1134 -0.047,0.1744 l 0.6506,1.128 c -1.0507,0.5888 -1.7887,1.6691 -1.9024,2.9297 h 7.4606 c -0.1137,-1.2607 -0.8519,-2.3411 -1.9027,-2.9299 l 0.6508,-1.1279 c 0.035,-0.061 0.014,-0.1394 -0.047,-0.1744 -0.023,-0.013 -0.048,-0.018 -0.073,-0.017 -0.041,0 -0.08,0.025 -0.1016,0.064 l -0.6568,1.1385 c -0.4853,-0.2298 -1.0275,-0.3591 -1.6002,-0.3591 -0.5727,0 -1.1149,0.1294 -1.6003,0.3592 l -0.6568,-1.1385 c -0.024,-0.042 -0.069,-0.065 -0.114,-0.064 z m 0.6337,2.5517 c 0.1716,0 0.3107,0.1391 0.3107,0.3107 0,0.1716 -0.1391,0.3107 -0.3107,0.3107 -0.1716,0 -0.3107,-0.1391 -0.3107,-0.3107 0,-0.1716 0.1391,-0.3107 0.3107,-0.3107 z m 3.4748,0 c 0.1716,0 0.3107,0.1391 0.3107,0.3107 0,0.1716 -0.1391,0.3107 -0.3107,0.3107 -0.1716,0 -0.3107,-0.1391 -0.3107,-0.3107 0,-0.1716 0.1391,-0.3107 0.3107,-0.3107 z"
             style="fill:url(#linearGradient3);stroke-width:0.155431"
             id="path119" /></g></g></g></g></svg>
