<?xml version="1.0" encoding="UTF-8" standalone="no"?>
<!-- Created with Inkscape (http://www.inkscape.org/) -->

<svg
   width="60.00013"
   height="58.519718"
   viewBox="0 0 60.00013 58.519718"
   version="1.1"
   id="svg1"
   xml:space="preserve"
   xmlns:xlink="http://www.w3.org/1999/xlink"
   xmlns="http://www.w3.org/2000/svg"
   xmlns:svg="http://www.w3.org/2000/svg"><defs
     id="defs1"><linearGradient
       id="linearGradient124"><stop
         style="stop-color:#d7dee7;stop-opacity:1;"
         offset="0"
         id="stop124" /><stop
         style="stop-color:#6d90bb;stop-opacity:1;"
         offset="1"
         id="stop125" /></linearGradient><linearGradient
       xlink:href="#linearGradient124"
       id="linearGradient125"
       x1="-413.51218"
       y1="1303.4889"
       x2="-455.93869"
       y2="1345.9154"
       gradientUnits="userSpaceOnUse" /></defs><g
     id="layer8"
     transform="translate(-83.48229,-938.10019)"><g
       id="g63"
       transform="translate(548.20779,-357.34201)"><path
         d="m -434.7255,1295.4422 c -16.57499,0 -30,13.425 -30,30 0,13.275 8.58751,24.4873 20.51251,28.4624 1.49999,0.2626 2.06249,-0.6373 2.06249,-1.425 0,-0.7125 -0.0373,-3.075 -0.0373,-5.5874 -7.5375,1.3874 -9.48752,-1.8376 -10.0875,-3.5249 -0.33751,-0.8626 -1.80001,-3.5251 -3.07501,-4.2377 -1.05,-0.5624 -2.55,-1.9499 -0.0376,-1.9874 2.36249,-0.037 4.04999,2.1752 4.6125,3.0751 2.7,4.5374 7.0125,3.2623 8.73749,2.475 0.26236,-1.9501 1.05001,-3.2626 1.91251,-4.0126 -6.67501,-0.75 -13.65001,-3.3375 -13.65001,-14.8124 0,-3.2626 1.1625,-5.9626 3.07499,-8.0626 -0.29998,-0.75 -1.34999,-3.825 0.30002,-7.9499 0,0 2.51249,-0.7875 8.24999,3.075 2.40001,-0.675 4.95,-1.0126 7.5,-1.0126 2.55,0 5.10001,0.3376 7.50001,1.0126 5.73763,-3.9 8.25,-3.075 8.25,-3.075 1.65,4.1249 0.6,7.1999 0.3,7.9499 1.91262,2.1 3.075,4.7626 3.075,8.0626 0,11.5123 -7.01237,14.0624 -13.68736,14.8124 1.08736,0.9376 2.025,2.7375 2.025,5.5499 0,4.0126 -0.0376,7.2376 -0.0376,8.25 0,0.7877 0.56263,1.725 2.06264,1.425 11.85,-3.9751 20.43736,-15.2249 20.43736,-28.4624 0,-16.575 -13.42501,-30 -30,-30 z"
         id="path1-06"
         style="fill:url(#linearGradient125);fill-opacity:1;stroke-width:2.72727" /></g></g></svg>
