<?xml version="1.0" encoding="UTF-8" standalone="no"?>
<!-- Created with Inkscape (http://www.inkscape.org/) -->

<svg
   width="59.999996"
   height="52.830738"
   viewBox="0 0 59.999996 52.830738"
   version="1.1"
   id="svg1"
   xml:space="preserve"
   xmlns:xlink="http://www.w3.org/1999/xlink"
   xmlns="http://www.w3.org/2000/svg"
   xmlns:svg="http://www.w3.org/2000/svg"><defs
     id="defs1"><linearGradient
       id="linearGradient122"><stop
         style="stop-color:#d7f7ff;stop-opacity:1;"
         offset="0"
         id="stop122" /><stop
         style="stop-color:#5fc1dd;stop-opacity:1;"
         offset="1"
         id="stop123" /></linearGradient><linearGradient
       xlink:href="#linearGradient122"
       id="linearGradient123"
       x1="134.69554"
       y1="833.86676"
       x2="92.269127"
       y2="876.29315"
       gradientUnits="userSpaceOnUse" /></defs><g
     id="layer8"
     transform="translate(-83.482334,-828.6646)"><g
       id="g64"
       transform="translate(548.20779,-597.75312)"><path
         d="m 96.488704,832.21959 c 6.878166,5.1655 14.277256,15.6382 16.993626,21.2564 2.71637,-5.6182 10.11546,-16.0909 16.99363,-21.2536 4.96364,-3.7282 13.00637,-6.6109 13.00637,2.5636 0,1.8328 -1.05,15.3927 -1.66637,17.5936 -2.14089,7.6528 -9.94635,9.6056 -16.88726,8.4246 12.13363,2.0647 15.2209,8.9046 8.55545,15.7474 -12.66272,12.9927 -18.19636,-3.2591 -19.61728,-7.4237 -0.25908,-0.7636 -0.38182,-1.121 -0.38182,-0.8182 -0.003,-0.3054 -0.12274,0.052 -0.38181,0.8182 -1.4209,4.1646 -6.95454,20.4164 -19.617276,7.4237 -6.66817,-6.8428 -3.5809,-13.6827 8.555456,-15.7474 -6.943636,1.181 -14.746356,-0.7691 -16.887276,-8.4246 -0.62181,-2.2009 -1.67181,-15.7608 -1.67181,-17.5936 0,-9.1745 8.04273,-6.2918 13.00637,-2.5664 z"
         id="path1-8"
         style="fill:url(#linearGradient123);fill-opacity:1;stroke-width:2.72728"
         transform="translate(-548.20779,597.75312)" /></g></g></svg>
