<?xml version="1.0" encoding="UTF-8" standalone="no"?>
<!-- Created with Inkscape (http://www.inkscape.org/) -->

<svg
   width="161.64148"
   height="205.87903"
   viewBox="0 0 161.64148 205.87903"
   version="1.1"
   id="svg1"
   xml:space="preserve"
   xmlns:xlink="http://www.w3.org/1999/xlink"
   xmlns="http://www.w3.org/2000/svg"
   xmlns:svg="http://www.w3.org/2000/svg"><defs
     id="defs1"><linearGradient
       id="linearGradient92"><stop
         style="stop-color:#ffccb9;stop-opacity:1;"
         offset="0"
         id="stop92" /><stop
         style="stop-color:#f7a384;stop-opacity:1;"
         offset="1"
         id="stop93" /></linearGradient><linearGradient
       xlink:href="#linearGradient92"
       id="linearGradient93"
       x1="862.87421"
       y1="1334.0673"
       x2="880.63971"
       y2="1351.8326"
       gradientUnits="userSpaceOnUse" /></defs><g
     id="layer8"
     transform="translate(-975.61718,-809.2348)"><g
       id="g75"
       style="fill-opacity:1"
       transform="matrix(6.4337221,0,0,6.4337221,-4552.2041,-7727.9921)"><path
         d="m 873.7973,1326.9499 c 1.76028,4.0732 -6.31104,6.5886 -7.06116,9.9816 -0.68761,3.118 4.79579,6.7412 4.80079,6.7412 -0.83264,-1.2902 -1.44524,-2.353 -2.28037,-4.3608 -1.41274,-3.3955 8.6039,-6.4686 4.54074,-12.362 z m 5.36087,5.6409 c 0,0 -7.08116,0.4551 -7.44122,4.9809 -0.16002,2.0153 1.86281,3.0754 1.92031,4.5407 0.0475,1.1977 -1.20019,2.2003 -1.20019,2.2003 0,0 2.27037,-0.4325 2.98049,-2.2603 0.78763,-2.0278 -1.53526,-3.398 -1.30021,-5.0208 0.22503,-1.5529 5.04082,-4.4408 5.04082,-4.4408 z m -11.12181,10.4618 c 0,0 -6.48106,-0.093 -6.48106,1.7402 0,1.9153 8.48388,2.0578 14.54237,0.8801 0,0 1.61026,-1.1076 2.04033,-1.5202 -3.97065,0.8102 -13.02212,0.9002 -13.02212,0.2 0,-0.645 2.92048,-1.3001 2.92048,-1.3001 z m 12.46203,0 c -0.63511,0.05 -1.32022,0.295 -1.94032,0.74 1.46024,-0.315 2.70044,0.5901 2.70044,1.6204 0,2.3203 -3.36054,4.5006 -3.36054,4.5006 0,0 5.20084,-0.5901 5.20084,-4.4007 0,-1.7302 -1.2027,-2.5704 -2.60042,-2.4603 z m -14.02229,3.5605 c -0.99516,0 -2.48041,0.7801 -2.48041,1.5203 0,1.4877 7.48122,2.6329 13.02213,0.4601 l -1.92031,-1.1803 c -3.75561,1.2028 -10.67175,0.8102 -8.62141,-0.8001 z m 0.92015,3.3406 c -1.36272,0 -2.26037,0.8226 -2.26037,1.4402 0,1.9103 8.13883,2.1028 11.36186,0.16 l -2.04034,-1.3001 c -2.40789,1.0176 -8.45138,1.1726 -7.06115,-0.3001 z m -4.54074,1.7202 c -2.22037,-0.045 -3.6606,0.9527 -3.6606,1.7804 0,4.4007 22.72371,4.1981 22.72371,-0.3001 0,-0.7477 -0.86264,-1.1102 -1.18019,-1.2802 1.8578,4.3007 -18.60304,3.9581 -18.60304,1.4202 0,-0.5776 1.50525,-1.1302 2.90047,-0.8601 l -1.18019,-0.6801 c -0.34756,-0.053 -0.68261,-0.072 -1.00016,-0.08 z m 21.4635,2.9605 c -3.45557,3.2755 -12.21199,4.4633 -21.02343,2.4404 8.80894,3.6056 20.98093,1.5828 21.02343,-2.4404 z"
         id="path1"
         style="fill:url(#linearGradient93);fill-opacity:1;stroke-width:0.640105" /></g></g></svg>
