<?xml version="1.0" encoding="UTF-8" standalone="no"?>
<!-- Created with Inkscape (http://www.inkscape.org/) -->

<svg
   width="205.8791"
   height="205.8791"
   viewBox="0 0 205.8791 205.8791"
   version="1.1"
   id="svg1"
   xml:space="preserve"
   xmlns:xlink="http://www.w3.org/1999/xlink"
   xmlns="http://www.w3.org/2000/svg"
   xmlns:svg="http://www.w3.org/2000/svg"><defs
     id="defs1"><linearGradient
       id="linearGradient94"><stop
         style="stop-color:#fff9b9;stop-opacity:1;"
         offset="0"
         id="stop94" /><stop
         style="stop-color:#f3ea90;stop-opacity:1;"
         offset="1"
         id="stop95" /></linearGradient><linearGradient
       xlink:href="#linearGradient94"
       id="linearGradient95"
       x1="903.41351"
       y1="1328.0441"
       x2="926.04095"
       y2="1350.6715"
       gradientUnits="userSpaceOnUse" /></defs><g
     id="layer8"
     transform="translate(-1229.9572,-786.12422)"><g
       id="g75"
       style="fill-opacity:1"
       transform="matrix(6.4337221,0,0,6.4337221,-4552.2041,-7727.9921)"><path
         d="m 927.81814,1323.3578 h -26.18182 c -1.60726,0 -2.90908,1.3018 -2.90908,2.9092 v 26.1817 c 0,1.6073 1.30182,2.9091 2.90908,2.9091 h 26.18182 c 1.6073,0 2.9091,-1.3018 2.9091,-2.9091 v -26.1817 c 0,-1.6073 -1.3018,-2.9092 -2.9091,-2.9092 z m -13.09094,23.8254 c 0,2.5848 -1.58545,4.0334 -4.21817,4.0334 -2.60072,0 -4.25744,-1.52 -4.25744,-3.9781 h 2.81744 c 0.0146,0.912 0.55128,1.488 1.392,1.488 0.864,0 1.328,-0.544 1.328,-1.568 v -7.8035 h 2.93817 z m 7.97235,4.0334 c -2.92218,0 -4.76072,-1.376 -4.81017,-3.6014 h 2.80145 c 0.0713,0.8407 0.91054,1.376 2.12799,1.376 1.09673,0 1.85018,-0.528 1.85018,-1.2887 0,-0.64 -0.50473,-0.9848 -1.82545,-1.248 l -1.52,-0.304 c -2.11345,-0.4 -3.20144,-1.552 -3.20144,-3.3687 0,-2.2575 1.80945,-3.7382 4.59344,-3.7382 2.70549,0 4.57749,1.4647 4.62549,3.6014 h -2.71277 c -0.064,-0.816 -0.84072,-1.3847 -1.8749,-1.3847 -1.03127,0 -1.71054,0.4887 -1.71054,1.2567 0,0.6328 0.51199,1.0008 1.72799,1.2408 l 1.48654,0.288 c 2.28218,0.4407 3.30618,1.4719 3.30618,3.3047 0,2.4101 -1.8385,3.8661 -4.86399,3.8661 z"
         id="path1-9"
         style="fill:url(#linearGradient95);fill-opacity:1;stroke-width:1.45454" /></g></g></svg>
