<?xml version="1.0" encoding="UTF-8" standalone="no"?>
<!-- Created with Inkscape (http://www.inkscape.org/) -->

<svg
   width="164.70329"
   height="205.8791"
   viewBox="0 0 164.70329 205.8791"
   version="1.1"
   id="svg1"
   xml:space="preserve"
   xmlns:xlink="http://www.w3.org/1999/xlink"
   xmlns="http://www.w3.org/2000/svg"
   xmlns:svg="http://www.w3.org/2000/svg"><defs
     id="defs1"><linearGradient
       id="linearGradient110"><stop
         style="stop-color:#ffbdb9;stop-opacity:1;"
         offset="0"
         id="stop110" /><stop
         style="stop-color:#f28e88;stop-opacity:1;"
         offset="1"
         id="stop111" /></linearGradient><linearGradient
       xlink:href="#linearGradient110"
       id="linearGradient111"
       x1="1109.0554"
       y1="1305.1687"
       x2="1131.6829"
       y2="1327.7961"
       gradientUnits="userSpaceOnUse" /></defs><g
     id="layer8"
     transform="translate(-1250.5451,-547.54529)"><g
       id="g71"
       transform="translate(799.6309,-128.62886)"
       style="fill-opacity:1;stroke:none;stroke-opacity:1"><path
         d="m 1120.3691,1296.4824 c -8.6106,0.01 -15.6627,3.0122 -15.957,6.7988 -0.017,0.08 -0.032,0.162 -0.043,0.2422 0.011,1.1911 0.7085,2.3602 2.0273,3.4004 2.1346,1.6901 5.7551,2.9202 10.0118,3.4004 1.2924,0.1523 2.6231,0.2319 3.9609,0.2383 1.3696,-0.01 2.7316,-0.089 4.0527,-0.2481 4.2304,-0.489 7.8214,-1.7199 9.9375,-3.4043 1.3076,-1.0368 1.999,-2.2009 2.0098,-3.3867 0,-0.08 -0.01,-0.162 -0.014,-0.2422 -0.2947,-3.7916 -7.3642,-6.7977 -15.9863,-6.7988 z m -16,8.8008 v 6.7988 c 0.011,1.191 0.7085,2.3622 2.0273,3.4023 2.3264,1.8508 6.4206,3.1428 11.1504,3.5196 0.9309,0.077 1.8755,0.1164 2.8223,0.1191 0.9603,0 1.9179,-0.046 2.8613,-0.125 4.7255,-0.3814 8.8114,-1.6756 11.1289,-3.5273 1.3076,-1.0368 1.999,-2.203 2.0098,-3.3887 v -6.7988 c -0.011,1.1857 -0.7022,2.35 -2.0098,3.3867 -2.1161,1.6845 -5.7071,2.9152 -9.9375,3.4043 -1.3211,0.1591 -2.6831,0.2416 -4.0527,0.248 -1.3378,-0.01 -2.6685,-0.086 -3.9609,-0.2383 -4.2567,-0.4803 -7.8772,-1.7104 -10.0118,-3.4004 -1.3188,-1.0402 -2.0163,-2.2093 -2.0273,-3.4003 z m 0,8.5586 v 6.8007 c 0.015,1.2385 0.7722,2.4529 2.1953,3.5215 2.8498,2.1706 8.1078,3.5099 13.8047,3.5176 5.7149,-0.01 10.9866,-1.3557 13.8301,-3.5371 1.4069,-1.064 2.1551,-2.2709 2.1699,-3.502 v -6.8007 c -0.011,1.1856 -0.7022,2.3519 -2.0098,3.3886 -2.3175,1.8518 -6.4034,3.1478 -11.1289,3.5293 -0.9434,0.079 -1.901,0.1197 -2.8613,0.1231 -0.9468,0 -1.8914,-0.043 -2.8223,-0.1192 -4.7298,-0.3769 -8.824,-1.6687 -11.1504,-3.5195 -1.3188,-1.0401 -2.0163,-2.2113 -2.0273,-3.4023 z m 0,8.5605 v 7.0391 c 0,3.8882 7.1635,7.041 16,7.041 8.8366,0 16,-3.1528 16,-7.041 v -7.0391 c -0.015,1.231 -0.763,2.438 -2.1699,3.502 -2.8435,2.1813 -8.1152,3.5294 -13.8301,3.5371 -5.6969,-0.01 -10.9549,-1.347 -13.8047,-3.5176 -1.4231,-1.0685 -2.1802,-2.283 -2.1953,-3.5215 z"
         style="opacity:1;fill:url(#linearGradient111);fill-opacity:1;fill-rule:nonzero;stroke-width:0.654792;paint-order:fill markers stroke"
         id="path98" /></g><g
       id="g75"
       style="fill-opacity:1"
       transform="matrix(6.4337221,0,0,6.4337221,-4552.2041,-7727.9921)"><use
         x="0"
         y="0"
         xlink:href="#g71"
         id="use72"
         transform="matrix(0.8,0,0,0.8,-621.27276,351.9924)"
         style="fill-opacity:1;stroke-width:1;stroke-dasharray:none" /></g></g></svg>
