<?xml version="1.0" encoding="UTF-8" standalone="no"?>
<!-- Created with Inkscape (http://www.inkscape.org/) -->

<svg
   width="303.61465"
   height="164.45801"
   viewBox="0 0 303.61465 164.45801"
   version="1.1"
   id="svg1"
   xml:space="preserve"
   xmlns:xlink="http://www.w3.org/1999/xlink"
   xmlns="http://www.w3.org/2000/svg"
   xmlns:svg="http://www.w3.org/2000/svg"><defs
     id="defs1"><linearGradient
       id="linearGradient116"><stop
         style="stop-color:#e1b8ff;stop-opacity:1;"
         offset="0"
         id="stop116" /><stop
         style="stop-color:#9e5fc8;stop-opacity:1;"
         offset="1"
         id="stop117" /></linearGradient><linearGradient
       xlink:href="#linearGradient116"
       id="linearGradient117"
       x1="961.69171"
       y1="1340.9829"
       x2="981.98212"
       y2="1361.2732"
       gradientUnits="userSpaceOnUse" /></defs><g
     id="layer8"
     transform="translate(-1531.4001,-855.54267)"><g
       id="g75"
       style="fill-opacity:1"
       transform="matrix(6.4337221,0,0,6.4337221,-4552.2041,-7727.9921)"><g
         id="g80"
         transform="translate(-9.3258056,2.9529426)"><g
           id="g90"
           style="fill:#cbffe3;fill-opacity:1"
           transform="matrix(4.4739259,0,0,4.4739259,-3551.2806,-4632.5192)"><path
             d="m 971.83689,1343.3564 c -8.04474,0 -14.34746,3.4141 -14.34746,7.7716 0,4.3575 6.30272,7.7715 14.34746,7.7715 8.04475,0 14.34748,-3.414 14.34748,-7.7715 0,-4.3575 -6.30273,-7.7716 -14.34748,-7.7716 z m -1.48987,2.3912 h 1.56692 l -0.49737,2.3913 h 1.39876 c 0.8874,0 1.48287,0.1237 1.82148,0.4344 0.3316,0.3059 0.43202,0.8079 0.29891,1.4922 l -0.62118,2.8559 h -1.59258 l 0.5721,-2.6411 c 0.0701,-0.362 0.0419,-0.6141 -0.0794,-0.7473 -0.12144,-0.1331 -0.38763,-0.1985 -0.78695,-0.1985 h -1.25406 l -0.75656,3.5869 h -1.56928 z m -6.87948,2.3913 h 3.18755 c 1.52022,0 2.44029,1.0181 2.08066,2.5384 -0.418,1.7654 -1.53888,2.2441 -3.59853,2.2441 h -0.98549 l -0.31288,1.7934 h -1.58326 z m 12.55402,0 h 3.18755 c 1.52024,0 2.44031,1.0181 2.08068,2.5384 -0.418,1.7654 -1.53888,2.2441 -3.59853,2.2441 h -0.98549 l -0.31288,1.7934 h -1.58326 z m -11.19728,1.1956 -0.4507,2.3913 h 1.02286 c 0.885,0 1.707,-0.1005 1.84479,-1.4198 0.0514,-0.5114 -0.16112,-0.9715 -1.18398,-0.9715 z m 12.55404,0 -0.45071,2.3913 h 1.02287 c 0.885,0 1.707,-0.1005 1.84479,-1.4198 0.0514,-0.5114 -0.16112,-0.9715 -1.18398,-0.9715 z"
             id="path1-3"
             style="fill:url(#linearGradient117);fill-opacity:1;stroke-width:0.597811"
             transform="matrix(0.36759222,0,0,0.36759222,655.2453,839.18607)" /></g></g></g></g></svg>
