<?xml version="1.0" encoding="UTF-8" standalone="no"?>
<!-- Created with Inkscape (http://www.inkscape.org/) -->

<svg
   width="205.87917"
   height="205.8791"
   viewBox="0 0 205.87917 205.8791"
   version="1.1"
   id="svg1"
   xml:space="preserve"
   xmlns:xlink="http://www.w3.org/1999/xlink"
   xmlns="http://www.w3.org/2000/svg"
   xmlns:svg="http://www.w3.org/2000/svg"><defs
     id="defs1"><linearGradient
       id="linearGradient90"><stop
         style="stop-color:#ffe6b9;stop-opacity:1;"
         offset="0"
         id="stop90" /><stop
         style="stop-color:#f5cb81;stop-opacity:1;"
         offset="1"
         id="stop91" /></linearGradient><linearGradient
       xlink:href="#linearGradient90"
       id="linearGradient91"
       x1="860.44324"
       y1="1290.3729"
       x2="883.07068"
       y2="1313.0004"
       gradientUnits="userSpaceOnUse" /></defs><g
     id="layer8"
     transform="translate(-953.4983,-543.75884)"><g
       id="g75"
       style="fill-opacity:1"
       transform="matrix(6.4337221,0,0,6.4337221,-4552.2041,-7727.9921)"><path
         d="m 871.40915,1285.6867 c -6.0516,0 -7.3044,3.125 -7.3044,4.9348 v 3.413 h 6.9565 v 0.6957 h -10.3696 c -2.2961,0 -4.9347,1.8098 -4.9347,6.9565 0,5.1467 2.6386,6.9565 4.9347,6.9565 h 4.1088 v -4.1739 c 0,-1.5299 1.2527,-2.7826 2.7826,-2.7826 h 8.3478 c 1.1821,0 2.087,-0.9049 2.087,-2.087 v -8.9782 c 0,-2.4348 -2.2962,-4.9348 -6.6087,-4.9348 z m -3.1305,3.4783 c 0.7663,0 1.3913,0.6249 1.3913,1.3913 0,0.7663 -0.625,1.3913 -1.3913,1.3913 -0.7663,0 -1.3913,-0.625 -1.3913,-1.3913 0,-0.7664 0.625,-1.3913 1.3913,-1.3913 z m 10.4348,5.5652 v 4.8695 c 0,1.5299 -1.2527,2.7827 -2.7826,2.7827 h -8.3478 c -1.1821,0 -2.087,0.9049 -2.087,2.0869 v 8.2827 c 0,2.4347 2.2962,4.9347 6.6087,4.9347 6.0516,0 7.3044,-3.125 7.3044,-4.9347 v -3.4131 h -6.9565 v -0.6957 h 10.36951 c 2.2962,0 4.9348,-1.8098 4.9348,-6.9565 0,-5.1467 -2.6386,-6.9565 -4.9348,-6.9565 z m -3.4782,16.6956 c 0.7662,0 1.3913,0.625 1.3913,1.3913 0,0.7664 -0.6251,1.3913 -1.3913,1.3913 -0.7664,0 -1.3913,-0.6249 -1.3913,-1.3913 0,-0.7663 0.6249,-1.3913 1.3913,-1.3913 z"
         id="path1-81"
         style="fill:url(#linearGradient91);fill-opacity:1;stroke-width:0.695652" /></g></g></svg>
